<?xml version="1.0" encoding="UTF-8"?>
<svg xmlns="http://www.w3.org/2000/svg" version="1.1" viewBox="0 0 500 500">
  <defs>
    <style>
      .cls-1 {
        fill: #fff;
      }

      .cls-2 {
        fill: none;
      }
    </style>
  </defs>
  <!-- Generator: Adobe Illustrator 28.7.1, SVG Export Plug-In . SVG Version: 1.2.0 Build 142)  -->
  <g>
    <g id="Layer_1">
      <circle class="cls-1" cx="250" cy="250" r="245"/>
      <g>
        <path d="M251.56,39.57l42.21,48.52c-8.48,11-11.68,24.78-13.27,38.32l11.02-15.34,13.65-11.88,22.65,26.4c-34.1,28.79-68.61,73.38-50.33,120.48,16.68,42.95,65.92,54.53,94.58,15.44,36.53-49.81,14.42-129.05-22.66-172.57-14.4-16.9-32.66-29.29-50.21-42.53,153.81,34.85,213.3,228.06,106.37,345.69-111.05,122.16-316.05,72.77-357.7-86.5-2.99-11.42-4.43-23.02-7.29-34.43.82-13.28-1.11-27.76,0-40.87.89-10.48,4.81-27,7.66-37.46C67.67,121.68,137.43,52.86,202.21,46.4l-24.63,17.05c-52.18,38.72-87.15,124.97-56.82,186.22,22.38,45.2,75.7,49.5,99.11,2.55,24.37-48.87-11.23-97.04-48.24-126.65l24.64-26.36,22.95,25.51c.1-13.7-6.59-25.88-11.62-38.07l42.27-47.07h1.7Z"/>
        <rect class="cls-2" x="40.22" y="39.57" width="419.56" height="420.85"/>
        <path d="M134.22,74.11v37.13c-26.59,44.82-37.65,108.01-6.75,150.15,2.14,2.92,4.4,5.55,6.75,7.91v157.18c-14.34-9.43-27.88-20.9-40.24-34.51C4.1,293.11,31.79,140.86,134.22,74.11Z"/>
      </g>
    </g>
  </g>
</svg>