<?xml version="1.0" encoding="UTF-8"?>
<svg id="Layer_1" xmlns="http://www.w3.org/2000/svg" version="1.1" viewBox="0 0 640 640">
  <!-- Generator: Adobe Illustrator 29.8.1, SVG Export Plug-In . SVG Version: 2.1.1 Build 2)  -->
  <defs>
    <style>
      .st0 {
        fill: #fff;
      }
    </style>
  </defs>
  <path class="st0" d="M576,320c0,10.8-.7,21.4-2,31.9-72.4,25.2-159.6,40.1-254,40.1s-181.6-14.9-254-40.1c-1.3-10.5-2-21.1-2-31.9,0-141.4,114.6-256,256-256s256,114.6,256,256ZM320,440c87,0,169.2-12,241-33.5-35.5,98.8-130,169.5-241,169.5s-205.5-70.7-241-169.5c71.8,21.5,154,33.5,241,33.5ZM224,224c0-17.7,14.3-32,32-32s32,14.3,32,32-14.3,32-32,32-32-14.3-32-32ZM336,224c0-44.2-35.8-80-80-80s-80,35.8-80,80,35.8,80,80,80,80-35.8,80-80Z"/>
</svg>