<?xml version="1.0" encoding="UTF-8"?>
<svg xmlns="http://www.w3.org/2000/svg" version="1.1" viewBox="0 0 500 500">
  <defs>
    <style>
      .cls-1 {
        fill: #fff;
      }
    </style>
  </defs>
  <!-- Generator: Adobe Illustrator 28.7.1, SVG Export Plug-In . SVG Version: 1.2.0 Build 142)  -->
  <g>
    <g id="Layer_1">
      <circle class="cls-1" cx="250" cy="250" r="245"/>
      <circle cx="250" cy="250" r="65.26"/>
      <rect x="116.56" y="236.5" width="266.88" height="26.99"/>
      <rect x="116.56" y="236.5" width="266.88" height="26.99" transform="translate(0 500) rotate(-90)"/>
      <rect x="116.56" y="236.5" width="266.88" height="26.99" transform="translate(250 603.55) rotate(-135)"/>
      <rect x="116.56" y="236.5" width="266.88" height="26.99" transform="translate(-103.55 250) rotate(-45)"/>
      <path d="M250,57.35c106.23,0,192.65,86.42,192.65,192.65s-86.42,192.65-192.65,192.65S57.35,356.23,57.35,250,143.77,57.35,250,57.35M250,38.95c-116.56,0-211.05,94.49-211.05,211.05s94.49,211.05,211.05,211.05,211.05-94.49,211.05-211.05S366.56,38.95,250,38.95h0Z"/>
      <path d="M266.65,427.76l-2.65-18.22,9.11-1.32c25.64-3.72,50.32-13.84,71.37-29.26l5.76,7.65,5.07,7.23s0,0,0,0h0s0,0,0,0c-23.66,17.26-51.06,28.46-79.53,32.59l-9.11,1.32ZM232.09,427.62l-9.1-1.39c-28.78-4.41-56.28-15.89-79.5-33.19l-7.38-5.5,11-14.76,7.38,5.5c20.82,15.51,45.47,25.8,71.29,29.76l9.1,1.39-2.79,18.19ZM355.3,393.85l-5.07-7.23,5.39,7c-.11.08-.22.16-.32.23ZM387.45,363.97l-14.75-11.01,5.51-7.37c15.53-20.81,25.84-45.45,29.81-71.27l1.4-9.1,18.19,2.8-1.4,9.09c-4.43,28.78-15.93,56.26-33.25,79.48l-5.5,7.37ZM111.83,362.98l-5.72-7.69c-17.11-23.36-28.39-50.83-32.56-79.39l-1.33-9.11,18.21-2.66,1.33,9.11c3.74,25.6,13.85,50.23,29.24,71.24l5.42,7.4-14.6,11.1ZM409.56,236.09l-1.31-9.11c-3.71-25.69-13.83-50.41-29.28-71.49l-5.76-7.75,14.77-10.98,5.88,7.91c17.18,23.45,28.47,51.02,32.61,79.68l1.32,9.11-18.22,2.63ZM90.54,235l-18.2-2.77,1.39-9.1c4.39-28.78,15.84-56.28,33.13-79.53l5.49-7.38,14.77,10.98-5.49,7.39c-15.5,20.83-25.77,45.49-29.7,71.31l-1.39,9.1ZM352.68,127.04l-7.39-5.49c-20.84-15.48-45.51-25.73-71.34-29.65l-9.1-1.38,2.76-18.2,9.1,1.38c28.79,4.36,56.3,15.8,79.55,33.07l7.39,5.49-10.97,14.78ZM147.72,126.67l-10.84-14.87,7.61-5.55c23.51-17.23,50.94-28.5,79.45-32.68l9.11-1.34,2.67,18.21-9.1,1.34c-25.55,3.75-50.14,13.86-71.12,29.22l-7.77,5.67Z"/>
    </g>
  </g>
</svg>