<?xml version="1.0" encoding="UTF-8"?>
<svg xmlns="http://www.w3.org/2000/svg" version="1.1" viewBox="0 0 500 500">
  <defs>
    <style>
      .cls-1 {
        fill: #fff;
      }
    </style>
  </defs>
  <!-- Generator: Adobe Illustrator 28.7.1, SVG Export Plug-In . SVG Version: 1.2.0 Build 142)  -->
  <g>
    <g id="Layer_1">
      <g>
        <circle class="cls-1" cx="250" cy="250" r="61.22"/>
        <g>
          <polygon class="cls-1" points="256.75 241.1 243.25 241.1 235.89 122.69 264.11 122.69 256.75 241.1"/>
          <polygon class="cls-1" points="256.75 258.9 243.25 258.9 235.89 377.31 264.11 377.31 256.75 258.9"/>
        </g>
        <g>
          <polygon class="cls-1" points="261.07 251.43 254.36 239.72 353.45 174.47 367.48 198.96 261.07 251.43"/>
          <polygon class="cls-1" points="245.64 260.28 238.93 248.57 132.52 301.04 146.55 325.53 245.64 260.28"/>
        </g>
        <g>
          <polygon class="cls-1" points="254.26 260.32 261.09 248.68 366.94 302.26 352.66 326.6 254.26 260.32"/>
          <polygon class="cls-1" points="238.91 251.32 245.74 239.68 147.34 173.4 133.06 197.74 238.91 251.32"/>
        </g>
      </g>
      <circle class="cls-1" cx="250" cy="250" r="245"/>
      <path d="M250,57.35c106.23,0,192.65,86.42,192.65,192.65s-86.42,192.65-192.65,192.65S57.35,356.23,57.35,250,143.77,57.35,250,57.35M250,38.95c-116.56,0-211.05,94.49-211.05,211.05s94.49,211.05,211.05,211.05,211.05-94.49,211.05-211.05S366.56,38.95,250,38.95h0Z"/>
      <g>
        <circle cx="251.64" cy="249.55" r="160.74"/>
        <g>
          <g>
            <rect x="239.98" y="46.37" width="20.25" height="53.2"/>
            <path d="M213.01,100.25l-3.06-21.21s34.84-7.41,79.97-.5l-2.89,20.3-74.02,1.41Z"/>
          </g>
          <g>
            <rect x="239.98" y="400.43" width="20.25" height="53.2"/>
            <path d="M213.01,399.75l-3.06,21.21s34.84,7.41,79.97.5l-2.89-20.3-74.02-1.41Z"/>
          </g>
        </g>
        <g>
          <g>
            <rect x="86.29" y="135.23" width="20.25" height="53.2" transform="translate(-91.93 165.03) rotate(-60.19)"/>
            <path d="M101.65,207.58l-19.93-7.89s10.89-33.91,39.33-69.63l16.18,12.6-35.58,64.92Z"/>
          </g>
          <g>
            <rect x="393.49" y="311.27" width="20.25" height="53.2" transform="translate(-90.21 520.08) rotate(-60.19)"/>
            <path d="M361.51,356.49l16.88,13.21s23.75-26.54,40.19-69.13l-19.05-7.59-38.02,63.52Z"/>
          </g>
        </g>
        <g>
          <g>
            <rect x="85.76" y="310.38" width="20.25" height="53.2" transform="translate(-150.29 586.27) rotate(-119.48)"/>
            <path d="M137.88,355.84l-16.96,13.11s-23.6-26.68-39.79-69.37l19.1-7.48,37.65,63.74Z"/>
          </g>
          <g>
            <rect x="393.99" y="136.15" width="20.25" height="53.2" transform="translate(461.29 594.64) rotate(-119.48)"/>
            <path d="M398.62,208.46l19.98-7.77s-10.69-33.97-38.91-69.86l-16.26,12.5,35.2,65.13Z"/>
          </g>
        </g>
      </g>
      <g>
        <circle class="cls-1" cx="250" cy="250" r="61.22"/>
        <g>
          <polygon class="cls-1" points="256.75 241.1 243.25 241.1 235.89 122.69 264.11 122.69 256.75 241.1"/>
          <polygon class="cls-1" points="256.75 258.9 243.25 258.9 235.89 377.31 264.11 377.31 256.75 258.9"/>
        </g>
        <g>
          <polygon class="cls-1" points="261.07 251.43 254.36 239.72 353.45 174.47 367.48 198.96 261.07 251.43"/>
          <polygon class="cls-1" points="245.64 260.28 238.93 248.57 132.52 301.04 146.55 325.53 245.64 260.28"/>
        </g>
        <g>
          <polygon class="cls-1" points="254.26 260.32 261.09 248.68 366.94 302.26 352.66 326.6 254.26 260.32"/>
          <polygon class="cls-1" points="238.91 251.32 245.74 239.68 147.34 173.4 133.06 197.74 238.91 251.32"/>
        </g>
      </g>
    </g>
  </g>
</svg>