<?xml version="1.0" encoding="UTF-8"?>
<svg xmlns="http://www.w3.org/2000/svg" version="1.1" viewBox="0 0 500 500">
  <defs>
    <style>
      .cls-1 {
        fill: #fff;
      }

      .cls-2 {
        fill: none;
      }
    </style>
  </defs>
  <!-- Generator: Adobe Illustrator 28.7.1, SVG Export Plug-In . SVG Version: 1.2.0 Build 142)  -->
  <g>
    <g id="Layer_1">
      <g>
        <circle class="cls-1" cx="250" cy="250" r="245"/>
        <path d="M250.51,59.25c106.23,0,192.65,86.42,192.65,192.65s-86.42,192.65-192.65,192.65S57.86,358.12,57.86,251.89,144.28,59.25,250.51,59.25M250.51,40.84c-116.56,0-211.05,94.49-211.05,211.05s94.49,211.05,211.05,211.05,211.05-94.49,211.05-211.05S367.07,40.84,250.51,40.84h0Z"/>
        <path d="M210.14,85.12c.21-.43.42-.86.63-1.29.41-.82.82-1.63,1.22-2.45.81-1.65,1.6-3.31,2.4-4.96.16-.34.33-.68.5-1.02.33-.64,1.1-.69,1.52-.12,1.55,2.1,3.1,4.21,4.65,6.31.55.74,1.09,1.48,1.62,2.23.12.17.25.22.45.21,2.97-.21,5.94-.42,8.91-.62.56-.04,1.11-.06,1.67-.09.55-.02.92.64.68,1.23-.19.46-.39.91-.59,1.36-.71,1.63-1.43,3.25-2.14,4.88-.51,1.15-1.01,2.31-1.53,3.46-.09.2-.08.34.04.52.9,1.32,1.79,2.64,2.68,3.96.4.6.81,1.19,1.21,1.78.13.19.22.41.35.6.49.72,1,1.43,1.5,2.15.49.72.17,1.4-.69,1.49-2.58.29-5.16.57-7.74.86-.88.1-1.76.2-2.64.28-.24.02-.38.11-.49.33-.5,1.05-1.01,2.09-1.53,3.13-.71,1.44-1.41,2.88-2.12,4.32-.29.6-.58,1.2-.88,1.8-.35.7-1.1.78-1.56.16-.79-1.05-1.56-2.12-2.34-3.18-.84-1.14-1.68-2.27-2.52-3.41-.48-.65-.96-1.3-1.43-1.96-.1-.14-.2-.19-.38-.18-2.64.19-5.27.37-7.91.55-.85.06-1.69.12-2.54.17-.66.04-1.12-.6-.86-1.21.91-2.09,1.83-4.18,2.75-6.26.52-1.2,1.05-2.39,1.57-3.59.03-.08.02-.21-.03-.29-.97-1.45-1.94-2.9-2.92-4.35-.97-1.43-1.94-2.87-2.9-4.3-.46-.69-.14-1.35.68-1.44,3.39-.38,6.78-.75,10.16-1.13.15-.02.3.02.45.03.02.01.05.03.07.04Z"/>
        <path d="M289.82,85.12c-.21-.43-.42-.86-.63-1.29-.41-.82-.82-1.63-1.22-2.45-.81-1.65-1.6-3.31-2.4-4.96-.16-.34-.33-.68-.5-1.02-.33-.64-1.1-.69-1.52-.12-1.55,2.1-3.1,4.21-4.65,6.31-.55.74-1.09,1.48-1.62,2.23-.12.17-.25.22-.45.21-2.97-.21-5.94-.42-8.91-.62-.56-.04-1.11-.06-1.67-.09-.55-.02-.92.64-.68,1.23.19.46.39.91.59,1.36.71,1.63,1.43,3.25,2.14,4.88.51,1.15,1.01,2.31,1.53,3.46.09.2.08.34-.04.52-.9,1.32-1.79,2.64-2.68,3.96-.4.6-.81,1.19-1.21,1.78-.13.19-.22.41-.35.6-.49.72-1,1.43-1.5,2.15-.49.72-.17,1.4.69,1.49,2.58.29,5.16.57,7.74.86.88.1,1.76.2,2.64.28.24.02.38.11.49.33.5,1.05,1.01,2.09,1.53,3.13.71,1.44,1.41,2.88,2.12,4.32.29.6.58,1.2.88,1.8.35.7,1.1.78,1.56.16.79-1.05,1.56-2.12,2.34-3.18.84-1.14,1.68-2.27,2.52-3.41.48-.65.96-1.3,1.43-1.96.1-.14.2-.19.38-.18,2.64.19,5.27.37,7.91.55.85.06,1.69.12,2.54.17.66.04,1.12-.6.86-1.21-.91-2.09-1.83-4.18-2.75-6.26-.52-1.2-1.05-2.39-1.57-3.59-.03-.08-.02-.21.03-.29.97-1.45,1.94-2.9,2.92-4.35.97-1.43,1.94-2.87,2.9-4.3.46-.69.14-1.35-.68-1.44-3.39-.38-6.78-.75-10.16-1.13-.15-.02-.3.02-.45.03-.02.01-.05.03-.07.04Z"/>
        <path d="M353.51,116.37c.01-.48.03-.96.04-1.44.02-.91.02-1.83.04-2.74.05-1.84.1-3.67.15-5.51.01-.38.03-.76.03-1.13,0-.72-.65-1.12-1.3-.81-2.35,1.15-4.69,2.3-7.04,3.45-.83.41-1.65.81-2.47,1.23-.19.1-.32.08-.49-.02-2.54-1.56-5.08-3.11-7.62-4.66-.48-.29-.96-.57-1.44-.85-.48-.27-1.11.14-1.17.78-.05.49-.07.99-.1,1.48-.12,1.77-.23,3.54-.35,5.31-.08,1.26-.17,2.52-.24,3.77-.01.21-.08.34-.27.44-1.4.75-2.8,1.52-4.2,2.28-.63.34-1.27.68-1.9,1.02-.2.11-.39.26-.59.37-.77.41-1.55.8-2.32,1.21-.77.41-.8,1.16-.08,1.64,2.16,1.44,4.32,2.89,6.47,4.34.73.49,1.47.99,2.21,1.47.2.13.29.27.28.52-.04,1.16-.06,2.32-.09,3.49-.04,1.6-.07,3.2-.11,4.81-.02.67-.04,1.33-.05,2-.02.78.61,1.2,1.31.86,1.18-.57,2.36-1.16,3.54-1.74,1.27-.62,2.54-1.24,3.81-1.87.73-.36,1.46-.71,2.18-1.08.16-.08.27-.07.42.02,2.25,1.38,4.51,2.76,6.76,4.14.72.44,1.45.88,2.17,1.32.57.34,1.27-.02,1.32-.68.16-2.27.3-4.55.45-6.82.09-1.3.17-2.61.27-3.91,0-.09.08-.2.16-.24,1.53-.84,3.06-1.68,4.6-2.51,1.52-.83,3.04-1.65,4.56-2.48.72-.4.74-1.14.06-1.59-2.83-1.9-5.66-3.79-8.5-5.69-.12-.08-.27-.12-.41-.18-.03,0-.06,0-.08,0Z"/>
        <path d="M391.21,159.17c-.25-.41-.49-.83-.74-1.24-.47-.78-.96-1.56-1.43-2.34-.94-1.58-1.88-3.16-2.81-4.74-.19-.33-.38-.65-.58-.97-.38-.61-1.15-.6-1.53.01-1.37,2.23-2.74,4.45-4.1,6.68-.48.78-.96,1.57-1.43,2.36-.11.18-.23.24-.43.25-2.98.04-5.95.09-8.93.13-.56,0-1.11.03-1.67.05-.55.02-.86.71-.57,1.28.22.44.47.87.7,1.31.85,1.56,1.69,3.12,2.54,4.68.6,1.11,1.2,2.22,1.82,3.32.1.19.11.33,0,.52-.78,1.39-1.56,2.78-2.34,4.18-.35.63-.71,1.25-1.06,1.88-.11.2-.19.43-.3.63-.43.76-.88,1.51-1.31,2.26-.43.76-.06,1.41.81,1.43,2.6.07,5.19.14,7.79.21.88.02,1.77.05,2.65.06.24,0,.39.08.52.29.59,1,1.19,2,1.78,3,.82,1.37,1.65,2.75,2.48,4.12.34.57.68,1.15,1.03,1.72.41.67,1.16.69,1.57.03.7-1.12,1.38-2.24,2.07-3.36.74-1.2,1.48-2.41,2.22-3.61.42-.69.85-1.38,1.26-2.08.09-.15.19-.21.36-.21,2.64-.03,5.28-.07,7.93-.11.85-.01,1.7-.03,2.54-.05.66-.01,1.07-.69.75-1.28-1.08-2.01-2.18-4.01-3.26-6.01-.62-1.15-1.25-2.29-1.86-3.45-.04-.08-.04-.21,0-.29.84-1.53,1.69-3.06,2.54-4.58.84-1.51,1.69-3.02,2.52-4.53.4-.72.02-1.36-.8-1.38-3.41-.09-6.82-.18-10.22-.27-.15,0-.3.04-.45.07-.02.02-.05.03-.07.05Z"/>
        <path d="M416.41,224.9c-.03-.48-.05-.96-.08-1.44-.06-.91-.12-1.82-.17-2.74-.1-1.83-.19-3.67-.28-5.5-.02-.38-.03-.76-.06-1.13-.05-.72-.74-1.07-1.36-.7-2.25,1.33-4.49,2.67-6.74,4-.79.47-1.58.94-2.36,1.42-.18.11-.32.11-.5.02-2.65-1.35-5.31-2.69-7.96-4.04-.5-.25-1-.49-1.5-.73-.5-.24-1.09.23-1.1.87,0,.5,0,.99.01,1.49.02,1.77.05,3.55.07,5.32.02,1.26.03,2.52.06,3.78,0,.21-.06.34-.24.46-1.34.86-2.67,1.74-4.01,2.61-.6.39-1.21.78-1.81,1.17-.19.13-.36.29-.56.42-.73.47-1.48.92-2.21,1.39-.73.47-.71,1.22.05,1.64,2.27,1.27,4.53,2.54,6.8,3.81.77.43,1.54.87,2.32,1.29.21.11.31.25.32.5.05,1.16.12,2.32.19,3.48.09,1.6.18,3.2.27,4.8.04.67.07,1.33.11,2,.05.78.7,1.15,1.38.75,1.14-.66,2.26-1.34,3.39-2.01,1.22-.72,2.43-1.44,3.65-2.16.7-.41,1.4-.83,2.09-1.25.15-.09.26-.09.42-.02,2.35,1.2,4.71,2.39,7.07,3.59.76.38,1.51.77,2.27,1.14.59.3,1.27-.12,1.26-.78-.03-2.28-.06-4.56-.09-6.84-.02-1.31-.04-2.61-.04-3.92,0-.09.07-.21.14-.25,1.46-.96,2.92-1.92,4.38-2.87,1.45-.95,2.9-1.88,4.34-2.84.69-.45.65-1.19-.07-1.59-2.97-1.67-5.95-3.33-8.92-4.99-.13-.07-.28-.1-.43-.15-.03,0-.06,0-.08,0Z"/>
        <path d="M404.14,285.69c-.29-.38-.58-.76-.88-1.14-.57-.72-1.14-1.43-1.7-2.15-1.13-1.45-2.25-2.91-3.37-4.36-.23-.3-.46-.6-.7-.9-.45-.56-1.22-.45-1.51.2-1.09,2.38-2.18,4.75-3.26,7.13-.38.84-.77,1.67-1.13,2.51-.08.19-.2.27-.4.3-2.95.4-5.9.81-8.85,1.22-.55.08-1.1.17-1.65.26-.54.09-.77.81-.41,1.34.28.41.57.81.86,1.21,1.03,1.45,2.06,2.89,3.09,4.33.73,1.03,1.46,2.05,2.2,3.07.13.17.15.31.07.52-.61,1.47-1.21,2.95-1.81,4.43-.27.67-.55,1.33-.82,2-.09.22-.13.45-.22.66-.34.8-.69,1.6-1.03,2.41-.34.8.12,1.41.98,1.32,2.59-.25,5.17-.49,7.76-.74.88-.08,1.76-.16,2.64-.26.24-.03.4.03.55.22.7.92,1.42,1.84,2.13,2.76.98,1.26,1.97,2.53,2.96,3.79.41.53.81,1.06,1.23,1.58.48.62,1.23.54,1.56-.16.55-1.19,1.1-2.39,1.64-3.59.59-1.29,1.18-2.57,1.77-3.86.34-.74.68-1.47,1-2.22.07-.16.16-.23.33-.25,2.62-.35,5.24-.72,7.85-1.08.84-.12,1.68-.23,2.52-.35.66-.1.97-.82.59-1.36-1.32-1.86-2.65-3.71-3.97-5.57-.76-1.06-1.52-2.13-2.27-3.2-.05-.07-.06-.21-.03-.29.65-1.62,1.31-3.24,1.97-4.86.65-1.6,1.31-3.2,1.96-4.81.31-.76-.14-1.35-.96-1.27-3.39.32-6.79.65-10.18.98-.15.01-.29.08-.43.12-.02.02-.04.04-.06.05Z"/>
        <path d="M376.97,345.23c-.22-.43-.43-.86-.65-1.29-.42-.81-.85-1.62-1.26-2.44-.83-1.64-1.65-3.28-2.47-4.93-.17-.34-.33-.68-.51-1.01-.33-.63-1.11-.68-1.52-.1-1.52,2.12-3.05,4.25-4.57,6.37-.54.75-1.07,1.49-1.59,2.25-.12.17-.25.23-.45.21-2.97-.17-5.94-.34-8.91-.5-.56-.03-1.11-.05-1.67-.06-.55-.02-.91.65-.66,1.24.19.46.4.9.61,1.36.73,1.62,1.47,3.23,2.21,4.85.52,1.15,1.04,2.3,1.58,3.44.09.19.09.34-.03.52-.88,1.33-1.75,2.67-2.62,4-.39.6-.8,1.2-1.19,1.8-.13.2-.22.42-.35.61-.48.73-.98,1.44-1.47,2.17-.48.72-.16,1.4.71,1.49,2.59.25,5.17.5,7.76.76.88.09,1.76.18,2.64.25.24.02.38.1.49.32.51,1.04,1.04,2.08,1.57,3.11.72,1.43,1.45,2.86,2.18,4.29.3.59.6,1.19.9,1.78.36.7,1.11.77,1.56.14.77-1.06,1.53-2.14,2.3-3.21.82-1.15,1.65-2.3,2.47-3.45.47-.66.95-1.32,1.41-1.98.1-.15.2-.19.38-.18,2.64.15,5.28.3,7.91.45.85.05,1.69.09,2.54.13.66.03,1.11-.62.84-1.22-.94-2.08-1.89-4.15-2.83-6.23-.54-1.19-1.08-2.38-1.61-3.57-.03-.08-.02-.21.02-.29.95-1.47,1.91-2.93,2.86-4.39.95-1.45,1.9-2.89,2.84-4.34.45-.69.12-1.35-.7-1.43-3.39-.33-6.79-.66-10.18-.99-.15-.01-.3.02-.45.03-.02.01-.05.03-.07.04Z"/>
        <path d="M317.43,383.66c-.38-.29-.77-.58-1.15-.86-.74-.54-1.48-1.07-2.21-1.62-1.47-1.1-2.94-2.21-4.41-3.31-.3-.23-.6-.46-.91-.68-.58-.42-1.29-.11-1.41.59-.41,2.58-.83,5.16-1.25,7.74-.15.91-.29,1.81-.42,2.72-.03.21-.12.31-.3.39-2.74,1.17-5.47,2.35-8.2,3.53-.51.22-1.02.45-1.52.69-.5.23-.52.99-.04,1.4.38.32.77.63,1.15.94,1.38,1.12,2.76,2.24,4.13,3.35.98.79,1.96,1.59,2.94,2.37.17.13.23.26.2.48-.2,1.58-.38,3.17-.57,4.75-.09.71-.18,1.43-.26,2.14-.03.23,0,.47-.04.7-.11.86-.24,1.73-.35,2.59-.11.86.49,1.32,1.29,1.01,2.43-.93,4.85-1.85,7.28-2.78.83-.32,1.65-.63,2.47-.95.22-.09.39-.08.59.07.92.7,1.86,1.4,2.79,2.09,1.29.96,2.57,1.91,3.86,2.87.53.4,1.07.8,1.6,1.2.63.46,1.33.19,1.46-.57.22-1.3.42-2.6.63-3.89.23-1.4.45-2.79.68-4.19.13-.8.26-1.6.38-2.4.03-.18.1-.26.25-.33,2.43-1.04,4.86-2.08,7.28-3.13.78-.34,1.56-.67,2.33-1.01.61-.27.72-1.05.21-1.47-1.77-1.44-3.54-2.87-5.31-4.31-1.01-.82-2.03-1.65-3.04-2.48-.07-.05-.12-.18-.11-.27.2-1.74.4-3.47.6-5.21.2-1.72.41-3.43.61-5.15.09-.82-.5-1.26-1.27-.97-3.19,1.22-6.37,2.43-9.55,3.65-.14.05-.26.15-.39.23-.02.02-.03.05-.05.07Z"/>
        <path d="M254.27,397.37c-.25-.41-.49-.83-.74-1.24-.47-.78-.96-1.56-1.43-2.34-.94-1.58-1.88-3.16-2.81-4.74-.19-.33-.38-.65-.58-.97-.38-.61-1.15-.6-1.53.01-1.37,2.23-2.74,4.45-4.1,6.68-.48.78-.96,1.57-1.43,2.36-.11.18-.23.24-.43.25-2.98.04-5.95.09-8.93.13-.56,0-1.11.03-1.67.05-.55.02-.86.71-.57,1.28.22.44.47.87.7,1.31.85,1.56,1.69,3.12,2.54,4.68.6,1.11,1.2,2.22,1.82,3.32.1.19.11.33,0,.52-.78,1.39-1.56,2.78-2.34,4.18-.35.63-.71,1.25-1.06,1.88-.11.2-.19.43-.3.63-.43.76-.88,1.51-1.31,2.26-.43.76-.06,1.41.81,1.43,2.6.07,5.19.14,7.79.21.88.02,1.77.05,2.65.06.24,0,.39.08.52.29.59,1,1.19,2,1.78,3,.82,1.37,1.65,2.75,2.48,4.12.34.57.68,1.15,1.03,1.72.41.67,1.16.69,1.57.03.7-1.12,1.38-2.24,2.07-3.36.74-1.2,1.48-2.41,2.22-3.61.42-.69.85-1.38,1.26-2.08.09-.15.19-.21.36-.21,2.64-.03,5.28-.07,7.93-.11.85-.01,1.7-.03,2.54-.05.66-.01,1.07-.69.75-1.28-1.08-2.01-2.18-4.01-3.26-6.01-.62-1.15-1.25-2.29-1.86-3.45-.04-.08-.04-.21,0-.29.84-1.53,1.69-3.06,2.54-4.58.84-1.51,1.69-3.02,2.52-4.53.4-.72.02-1.36-.8-1.38-3.41-.09-6.82-.18-10.22-.27-.15,0-.3.04-.45.07-.02.02-.05.03-.07.05Z"/>
        <path d="M167.43,115.67c-.02-.48-.03-.96-.05-1.44-.04-.91-.09-1.83-.13-2.74-.07-1.84-.13-3.67-.19-5.51-.01-.38-.02-.76-.04-1.13-.04-.72-.72-1.08-1.34-.72-2.27,1.3-4.54,2.59-6.81,3.88-.8.46-1.6.91-2.39,1.38-.18.11-.32.1-.5,0-2.63-1.39-5.26-2.79-7.89-4.17-.49-.26-.99-.51-1.49-.75-.49-.24-1.1.21-1.12.85-.01.49,0,.99-.01,1.49,0,1.77-.01,3.55-.02,5.32,0,1.26,0,2.52,0,3.78,0,.21-.06.34-.25.46-1.36.84-2.7,1.69-4.05,2.54-.61.38-1.22.76-1.83,1.14-.2.12-.37.29-.57.41-.74.46-1.49.9-2.24,1.36-.74.46-.73,1.21.02,1.64,2.24,1.31,4.49,2.62,6.73,3.92.76.44,1.52.89,2.29,1.33.21.12.31.25.31.5.03,1.16.08,2.32.13,3.48.06,1.6.13,3.2.19,4.8.03.67.05,1.33.07,2,.03.78.68,1.16,1.36.78,1.15-.64,2.28-1.3,3.43-1.95,1.23-.7,2.46-1.4,3.69-2.1.7-.4,1.41-.8,2.11-1.21.15-.09.26-.09.42,0,2.33,1.24,4.67,2.47,7.01,3.71.75.4,1.5.79,2.25,1.18.59.31,1.27-.09,1.27-.76.01-2.28.02-4.56.03-6.84,0-1.31,0-2.61.02-3.92,0-.09.07-.2.14-.25,1.47-.94,2.95-1.87,4.43-2.8,1.46-.92,2.93-1.83,4.39-2.76.7-.44.67-1.18-.04-1.59-2.94-1.72-5.89-3.43-8.84-5.15-.13-.07-.28-.11-.42-.16-.03,0-.06,0-.08,0Z"/>
        <path d="M125.89,170.29c.24-.42.48-.83.72-1.25.45-.79.89-1.59,1.35-2.39.92-1.59,1.85-3.18,2.77-4.77.19-.33.39-.65.57-.98.35-.63-.04-1.3-.75-1.33-2.61-.11-5.22-.22-7.83-.33-.92-.04-1.84-.08-2.76-.1-.21,0-.32-.08-.42-.26-1.48-2.58-2.97-5.16-4.46-7.73-.28-.48-.57-.96-.86-1.43-.29-.47-1.04-.41-1.4.12-.28.41-.54.83-.8,1.25-.95,1.5-1.9,3-2.85,4.5-.67,1.07-1.35,2.13-2.01,3.2-.11.18-.24.26-.45.26-1.59,0-3.19,0-4.78,0-.72,0-1.44-.01-2.16,0-.23,0-.47.05-.7.04-.87,0-1.74-.03-2.62-.04-.87,0-1.26.64-.86,1.4,1.2,2.3,2.41,4.6,3.61,6.9.41.78.81,1.57,1.24,2.34.12.21.12.38,0,.59-.59,1-1.17,2.01-1.75,3.02-.8,1.39-1.6,2.78-2.4,4.17-.33.58-.67,1.15-1,1.73-.39.68-.04,1.35.74,1.38,1.31.06,2.63.11,3.94.17,1.41.06,2.83.12,4.24.18.81.03,1.62.07,2.43.09.18,0,.27.06.36.21,1.32,2.29,2.64,4.58,3.96,6.87.42.73.85,1.47,1.28,2.2.34.57,1.12.59,1.48.03,1.22-1.92,2.44-3.85,3.66-5.78.7-1.1,1.4-2.21,2.1-3.31.05-.07.17-.14.25-.14,1.75,0,3.49,0,5.24,0,1.73,0,3.46,0,5.19,0,.82,0,1.2-.64.82-1.37-1.58-3.02-3.16-6.04-4.75-9.06-.07-.13-.18-.24-.28-.36-.02-.01-.05-.03-.07-.04Z"/>
        <path d="M81.84,224.77c-.42.22-.85.45-1.27.67-.8.43-1.6.88-2.41,1.31-1.62.86-3.25,1.72-4.87,2.57-.33.18-.67.35-1,.53-.63.35-.66,1.12-.07,1.53,2.16,1.48,4.31,2.96,6.46,4.43.76.52,1.52,1.04,2.28,1.55.17.11.23.24.22.44-.11,2.97-.21,5.95-.31,8.92-.02.56-.03,1.11-.03,1.67,0,.55.67.9,1.25.64.45-.2.9-.42,1.34-.64,1.6-.77,3.2-1.54,4.8-2.31,1.14-.55,2.27-1.09,3.4-1.65.19-.09.34-.09.52.02,1.35.85,2.7,1.69,4.05,2.54.61.38,1.21.77,1.83,1.15.2.12.42.21.62.33.73.47,1.46.95,2.2,1.42.73.47,1.4.13,1.47-.74.2-2.59.4-5.18.6-7.77.07-.88.14-1.76.19-2.64.01-.24.1-.39.31-.5,1.03-.54,2.06-1.09,3.08-1.63,1.41-.75,2.83-1.51,4.24-2.27.59-.31,1.18-.62,1.77-.94.69-.37.74-1.12.11-1.57-1.08-.75-2.17-1.49-3.25-2.23-1.17-.8-2.33-1.6-3.5-2.4-.67-.46-1.34-.92-2.01-1.37-.15-.1-.2-.2-.19-.37.1-2.64.19-5.28.28-7.92.03-.85.06-1.69.08-2.54.02-.66-.64-1.1-1.24-.81-2.06.98-4.11,1.97-6.17,2.96-1.18.57-2.35,1.13-3.54,1.69-.08.04-.21.03-.29-.02-1.49-.92-2.97-1.84-4.45-2.77-1.47-.92-2.93-1.84-4.4-2.75-.7-.43-1.35-.09-1.42.73-.26,3.4-.52,6.8-.78,10.2-.01.15.03.3.04.45.01.02.03.05.04.07Z"/>
        <path d="M97.38,283.07c-.46-.12-.93-.24-1.39-.36-.89-.22-1.78-.43-2.66-.66-1.78-.46-3.56-.92-5.34-1.38-.37-.09-.73-.19-1.1-.28-.7-.17-1.24.39-1.08,1.08.6,2.54,1.19,5.09,1.79,7.63.21.89.42,1.79.65,2.68.05.2,0,.33-.13.48-2.08,2.13-4.16,4.25-6.24,6.38-.39.4-.77.81-1.15,1.21-.37.41-.11,1.11.5,1.31.47.15.95.29,1.42.43,1.7.51,3.4,1.02,5.1,1.53,1.21.36,2.41.72,3.63,1.07.21.06.31.16.37.37.42,1.54.86,3.07,1.28,4.61.19.69.38,1.39.57,2.08.06.22.17.44.23.66.23.84.44,1.69.67,2.53.23.84.95,1.04,1.58.45,1.89-1.78,3.78-3.56,5.67-5.34.64-.61,1.29-1.21,1.92-1.82.17-.17.33-.22.57-.16,1.12.3,2.25.58,3.38.87,1.55.39,3.11.79,4.66,1.18.65.16,1.29.33,1.94.5.76.19,1.31-.33,1.13-1.09-.29-1.28-.6-2.56-.9-3.84-.32-1.38-.64-2.75-.97-4.13-.19-.79-.37-1.58-.57-2.36-.04-.17-.01-.28.11-.4,1.85-1.89,3.7-3.78,5.54-5.67.59-.61,1.18-1.21,1.77-1.82.46-.48.27-1.24-.37-1.43-2.18-.66-4.37-1.31-6.55-1.97-1.25-.38-2.5-.75-3.75-1.13-.08-.03-.18-.12-.2-.21-.48-1.68-.95-3.36-1.42-5.04-.47-1.67-.93-3.33-1.4-5-.23-.79-.94-.98-1.54-.42-2.48,2.34-4.96,4.67-7.44,7.01-.11.1-.18.24-.27.36,0,.03-.01.05-.02.08Z"/>
        <path d="M136.12,341.63c-.3-.37-.6-.75-.91-1.12-.58-.7-1.17-1.4-1.75-2.11-1.16-1.43-2.31-2.86-3.47-4.29-.24-.29-.47-.59-.72-.88-.46-.55-1.23-.43-1.51.23-1.03,2.4-2.07,4.8-3.1,7.2-.36.84-.73,1.69-1.08,2.54-.08.19-.19.27-.39.3-2.94.47-5.88.94-8.81,1.42-.55.09-1.1.19-1.64.29-.54.1-.75.83-.38,1.35.29.4.59.8.88,1.19,1.06,1.42,2.13,2.84,3.19,4.26.76,1.01,1.51,2.02,2.27,3.02.13.17.16.31.08.51-.58,1.49-1.14,2.98-1.71,4.47-.26.67-.52,1.34-.78,2.01-.08.22-.12.45-.21.67-.32.81-.65,1.62-.97,2.43-.32.81.15,1.4,1.01,1.3,2.58-.31,5.16-.61,7.74-.92.88-.1,1.76-.2,2.63-.32.24-.03.4.02.55.21.72.91,1.46,1.81,2.2,2.71,1.01,1.24,2.03,2.48,3.04,3.72.42.52.84,1.04,1.26,1.55.5.6,1.24.51,1.56-.2.53-1.2,1.04-2.42,1.56-3.62.56-1.3,1.12-2.6,1.68-3.9.32-.74.64-1.49.95-2.24.07-.16.16-.23.33-.26,2.61-.41,5.22-.83,7.83-1.25.84-.13,1.67-.27,2.51-.41.65-.11.96-.84.56-1.37-1.36-1.83-2.73-3.65-4.09-5.48-.78-1.05-1.57-2.09-2.34-3.14-.05-.07-.07-.2-.04-.29.61-1.64,1.24-3.27,1.86-4.9.62-1.62,1.24-3.23,1.85-4.85.29-.77-.17-1.35-.99-1.25-3.39.4-6.77.8-10.16,1.21-.15.02-.29.09-.43.13-.02.02-.04.04-.06.06Z"/>
        <path d="M193.18,396.27c.35-.33.7-.66,1.05-.99.66-.63,1.31-1.27,1.98-1.9,1.34-1.26,2.68-2.52,4.02-3.78.28-.26.56-.51.83-.78.51-.5.33-1.26-.34-1.49-2.47-.85-4.94-1.71-7.41-2.56-.87-.3-1.74-.6-2.61-.88-.2-.06-.29-.17-.33-.37-.69-2.9-1.38-5.79-2.07-8.69-.13-.54-.27-1.08-.42-1.62-.14-.53-.88-.69-1.37-.28-.38.32-.75.65-1.12.97-1.34,1.17-2.68,2.33-4.01,3.5-.95.83-1.9,1.66-2.84,2.49-.16.14-.3.18-.51.12-1.53-.46-3.06-.92-4.58-1.37-.69-.21-1.38-.42-2.07-.62-.22-.07-.46-.09-.68-.16-.83-.26-1.66-.53-2.49-.79-.83-.26-1.39.25-1.22,1.1.5,2.55.99,5.1,1.49,7.65.17.87.33,1.74.52,2.6.05.24.01.4-.17.57-.85.79-1.69,1.59-2.54,2.39-1.16,1.1-2.32,2.21-3.49,3.31-.48.46-.97.91-1.45,1.37-.57.54-.42,1.28.31,1.54,1.24.44,2.49.86,3.73,1.29,1.34.46,2.67.92,4.01,1.39.77.26,1.53.53,2.3.78.17.05.24.14.28.31.61,2.57,1.22,5.14,1.83,7.71.2.82.39,1.65.6,2.47.16.64.91.89,1.41.46,1.72-1.49,3.44-2.99,5.16-4.49.98-.86,1.97-1.72,2.96-2.57.07-.06.2-.08.28-.06,1.68.49,3.35.99,5.03,1.49,1.66.49,3.31.99,4.97,1.48.79.23,1.33-.27,1.17-1.08-.65-3.35-1.3-6.69-1.96-10.04-.03-.15-.11-.28-.16-.42-.02-.02-.04-.04-.06-.06Z"/>
        <g>
          <path d="M250.86,127.17l24.73,28.43c-4.97,6.45-6.85,14.52-7.77,22.46l6.46-8.99,8-6.96,13.27,15.47c-19.98,16.87-40.21,43-29.49,70.6,9.78,25.17,38.63,31.96,55.42,9.05,21.41-29.19,8.45-75.62-13.28-101.13-8.44-9.91-19.14-17.17-29.43-24.93,90.14,20.42,125,133.65,62.33,202.58-65.08,71.58-185.21,42.64-209.62-50.69-1.75-6.69-2.59-13.49-4.27-20.17.48-7.78-.65-16.27,0-23.95.52-6.14,2.82-15.82,4.49-21.95,11.39-41.7,52.27-82.03,90.23-85.82l-14.43,9.99c-30.58,22.69-51.07,73.23-33.3,109.13,13.12,26.49,44.36,29.01,58.08,1.49,14.28-28.64-6.58-56.87-28.27-74.22l14.44-15.45,13.45,14.95c.06-8.03-3.86-15.17-6.81-22.31l24.77-27.59h1Z"/>
          <rect class="cls-2" x="127.01" y="127.17" width="245.87" height="246.63"/>
          <path d="M182.1,147.41v21.76c-15.58,26.26-22.06,63.29-3.95,87.99,1.25,1.71,2.58,3.25,3.95,4.64v92.11c-8.4-5.53-16.34-12.25-23.58-20.22-52.67-57.94-36.44-147.15,23.58-186.27Z"/>
        </g>
      </g>
    </g>
  </g>
</svg>